# xmcd CD database file generated by Grip 3.3.0
# 
# Track frame offsets:
#       150
#       21908
#       43753
#       62945
#       87131
#       102076
#       123887
#       146050
#       170231
#       185226
# 
# Disc length: 2702 seconds
# 
# Revision: 4
# Processed by: cddbd v1.5.1PL2 Copyright (c) Steve Scherf et al.
# Submitted via: Grip 3.3.0
# 
DISCID=910a8c0a
DTITLE=J. Karjalainen Electric Sauna - Marjaniemessä
DYEAR=2001
DGENRE=Rock
TTITLE0=Paskahousua
TTITLE1=Verinen mies
TTITLE2=Maailma on globaali
TTITLE3=Lumihiutaleet
TTITLE4=Toiset linnut
TTITLE5=Russakan helpeitä
TTITLE6=Gladiola
TTITLE7=Tokivai
TTITLE8=Kaikki pallot ilmassa
TTITLE9=Liskonpojat
EXTD=
EXTT0=
EXTT1=
EXTT2=
EXTT3=
EXTT4=
EXTT5=
EXTT6=
EXTT7=
EXTT8=
EXTT9=
PLAYORDER=
